<svg width="61" height="137" viewBox="0 0 61 137" fill="none" xmlns="http://www.w3.org/2000/svg">
<path d="M19.4442 26.0082C12.8883 20.398 36.2483 1.00002 36.2483 1.00002C36.2483 1.00002 4.94414 24.2881 11.5 29.8984C18.0559 35.5086 41.5 33.6827 40 41.9394C38.5 50.196 24.5 61.5489 24.5 61.5489C24.5 61.5489 48 47.7878 49.5 39.5312C51 31.2745 26 31.6185 19.4442 26.0082Z" fill="black" stroke="black"/>
<path d="M36.8692 25.426C36.8692 25.426 13.5092 44.8239 20.0651 50.4342C26.6209 56.0445 51.6209 55.7004 50.1209 63.9571C48.6209 72.2138 33.5 84.5988 31.5 84.2548C29.6834 83.9423 32.817 75.1147 33.4068 73.4986C33.4642 73.3384 33.5 73.2459 33.5 73.2459C33.5 73.2459 33.4664 73.3355 33.4068 73.4986C33.0361 74.5353 31.7678 78.4063 33.5 78.4063C35.5 78.4063 39.6686 71.6068 40.6209 66.3653C42.1209 58.1086 18.6768 59.9346 12.1209 54.3243C5.56503 48.7141 36.8692 25.426 36.8692 25.426Z" fill="black"/>
<path d="M36.8692 25.426C36.8692 25.426 13.5092 44.8239 20.0651 50.4342C26.6209 56.0445 51.6209 55.7004 50.1209 63.9571C48.6209 72.2138 33.5 84.5988 31.5 84.2548C29.5 83.9107 33.5 73.2459 33.5 73.2459C33.5 73.2459 31.5 78.4063 33.5 78.4063C35.5 78.4063 39.6686 71.6068 40.6209 66.3653C42.1209 58.1086 18.6768 59.9346 12.1209 54.3243C5.56503 48.7141 36.8692 25.426 36.8692 25.426Z" stroke="black"/>
<path d="M19.0759 77.2684C12.5201 71.6582 35.8801 52.2602 35.8801 52.2602C35.8801 52.2602 4.57588 75.5483 11.1317 81.1585C17.6876 86.7688 41.1318 84.9429 39.6317 93.1995C38.1317 101.456 24.1317 112.809 24.1317 112.809C24.1317 112.809 47.6317 99.048 49.1317 90.7913C50.6318 82.5347 25.6318 82.8787 19.0759 77.2684Z" fill="black" stroke="black"/>
<path d="M36.5009 76.6862C36.5009 76.6862 13.1409 96.0841 19.6968 101.694C26.2527 107.305 51.2526 106.961 49.7526 115.217C48.2526 123.474 33.1317 135.859 31.1317 135.515C29.3151 135.202 32.4487 126.375 33.0386 124.759C33.0959 124.599 33.1317 124.506 33.1317 124.506C33.1317 124.506 33.0981 124.596 33.0386 124.759C32.6679 125.795 31.3995 129.666 33.1317 129.666C35.1317 129.666 39.3004 122.867 40.2526 117.626C41.7526 109.369 18.3085 111.195 11.7526 105.585C5.19675 99.9743 36.5009 76.6862 36.5009 76.6862Z" fill="black"/>
<path d="M36.5009 76.6862C36.5009 76.6862 13.1409 96.0841 19.6968 101.694C26.2527 107.305 51.2526 106.961 49.7526 115.217C48.2526 123.474 33.1317 135.859 31.1317 135.515C29.1317 135.171 33.1317 124.506 33.1317 124.506C33.1317 124.506 31.1317 129.666 33.1317 129.666C35.1317 129.666 39.3004 122.867 40.2526 117.626C41.7526 109.369 18.3085 111.195 11.7526 105.585C5.19675 99.9743 36.5009 76.6862 36.5009 76.6862Z" stroke="black"/>
</svg>
